# xmcd
#
# Track frame offsets: 
#        150
#        11762
#        47137
#        76077
#        103027
#        135740
#        201380
#
# Disc length: 3627 seconds
#
# Revision: 4
# Processed by: cddbd v1.5.2PL0 Copyright (c) Steve Scherf et al.
# Submitted via: ExactAudioCopy v1.3
#
DISCID=590e2907
DTITLE=Various Artist - Im Herzen Der Klassik - Schumann - Symphonie Nr. 1 and 
DTITLE=Klavierkonzert A-Moll Opus 54
DYEAR=1996
DGENRE=Klassik
TTITLE0=St. Louis Symphony Orchestra - dir. Jerzy Semkov - Robert Schum
TTITLE0=ann - Symphonie Nr.1 in B-Dur Op38 - Erster Satz - Andante un p
TTITLE0=oco maestoso - Allegro molto vivace
TTITLE1=St. Louis Symphony Orchestra - dir. Jerzy Semkov - Robert Schum
TTITLE1=ann - Symphonie Nr.1 in B-Dur Op38 - Zweiter Satz - Larghetto
TTITLE2=St. Louis Symphony Orchestra - dir. Jerzy Semkov - Robert Schum
TTITLE2=ann - Symphonie Nr.1 in B-Dur Op38 - Dritter Satz - Scherzo mol
TTITLE2=to vivace
TTITLE3=St. Louis Symphony Orchestra - dir. Jerzy Semkov - Robert Schum
TTITLE3=ann - Symphonie Nr.1 in B-Dur Op38 - Vierter Satz - Allegro ani
TTITLE3=mato e grazioso
TTITLE4=Orchestre Symphonique de Radio-Télé-Luxembourg - Robert Schuma
TTITLE4=nn - Klavierkonzert A-Moll Op 54 Erster Satz - Allegro affettu
TTITLE4=oso
TTITLE5=Orchestre Symphonique de Radio-Télé-Luxembourg - Robert Schuma
TTITLE5=nn - Klavierkonzert A-Moll Op 54 Zweiter Satz - Intermezzo - A
TTITLE5=ndantino grazioso
TTITLE6=Orchestre Symphonique de Radio-Télé-Luxembourg - Robert Schuma
TTITLE6=nn - Klavierkonzert A-Moll Op 54 Dritter Satz - Allegro vivace
EXTD=
EXTT0=
EXTT1=
EXTT2=
EXTT3=
EXTT4=
EXTT5=
EXTT6=
PLAYORDER=
